M48
; DRILL file {KiCad (5.1.5-0-10_14)} date 2021 May 01, Saturday 16:37:34
; FORMAT={-:-/ absolute / inch / decimal}
; #@! TF.CreationDate,2021-05-01T16:37:34+02:00
; #@! TF.GenerationSoftware,Kicad,Pcbnew,(5.1.5-0-10_14)
FMAT,2
INCH
T1C0.0157
T2C0.0236
T3C0.0295
T4C0.0315
T5C0.0354
T6C0.0394
T7C0.0433
T8C0.0472
T9C0.0512
T10C0.0591
T11C0.0669
T12C0.0720
T13C0.0728
T14C0.0787
T15C0.1260
T16C0.1378
T17C0.1693
T18C0.1063
T19C0.1083
%
G90
G05
T1
X1.19Y-5.7535
X1.19Y-5.9435
X1.235Y-6.0435
X1.29Y-4.9735
X1.29Y-5.2335
X1.305Y-5.9435
X1.36Y-5.8185
X1.43Y-5.9685
X1.62Y-6.0635
X1.685Y-5.8985
X1.715Y-6.0435
X1.74Y-6.1585
X1.7537Y-5.7785
X1.755Y-6.0035
X1.83Y-5.8985
X1.85Y-5.7785
X1.895Y-5.9985
X2.39Y-5.6985
X2.42Y-6.2685
X2.4228Y-5.7319
X2.75Y-5.6335
X2.865Y-5.3835
X2.9475Y-7.7225
X3.2825Y-5.735
X3.325Y-5.7325
X3.435Y-7.5775
X3.45Y-6.3675
X3.45Y-6.4175
X3.47Y-7.5025
X3.47Y-7.9263
X4.6Y-6.595
X4.65Y-7.5335
X4.65Y-7.6785
X4.7Y-7.5335
X4.7Y-7.6785
X4.75Y-7.5335
X4.75Y-7.6785
X4.8Y-7.5335
X4.8Y-7.6785
X4.81Y-8.3235
X5.1125Y-7.461
X5.115Y-8.551
X5.1705Y-5.7935
X5.305Y-8.651
X5.31Y-8.551
X5.3325Y-7.5285
X5.3325Y-7.6835
X5.3335Y-5.7935
X5.44Y-7.6835
X5.4425Y-7.5285
X5.475Y-8.376
X5.52Y-8.376
X5.5575Y-7.531
X5.5575Y-7.6835
X5.565Y-8.521
X5.6725Y-7.5275
X5.745Y-8.521
X5.745Y-8.661
X5.77Y-8.3235
X6.31Y-8.521
X6.335Y-5.8119
X6.5Y-5.9185
X6.72Y-8.566
T2
X0.785Y-5.1385
X1.725Y-5.5885
X1.78Y-5.5885
X2.51Y-6.631
X2.61Y-6.726
X5.8Y-7.186
X6.005Y-5.4285
X6.005Y-5.4885
X6.005Y-5.5435
X6.005Y-5.5985
X6.005Y-5.6485
X6.065Y-5.4285
X6.065Y-5.4885
X6.065Y-5.5435
X6.065Y-5.5985
X6.065Y-5.6485
X6.0796Y-6.6464
X6.08Y-7.021
X6.15Y-5.6485
X6.1504Y-6.7039
X6.3Y-5.6635
X6.3Y-5.7185
X6.3Y-5.7735
X6.44Y-5.9735
X7.25Y-5.8135
X0.123Y-9.002
X0.1602Y-8.9122
X0.1602Y-9.0917
X0.25Y-8.875
X0.25Y-9.1289
X0.3398Y-8.9122
X0.3398Y-9.0917
X0.377Y-9.002
X0.123Y-0.25
X0.1602Y-0.1602
X0.1602Y-0.3398
X0.25Y-0.123
X0.25Y-0.377
X0.3398Y-0.1602
X0.3398Y-0.3398
X0.377Y-0.25
X7.1033Y-6.3642
X7.1405Y-6.2744
X7.1405Y-6.454
X7.2303Y-6.2372
X7.2303Y-6.4911
X7.3201Y-6.2744
X7.3201Y-6.454
X7.3573Y-6.3642
X7.1033Y-0.25
X7.1405Y-0.1602
X7.1405Y-0.3398
X7.2303Y-0.123
X7.2303Y-0.377
X7.3201Y-0.1602
X7.3201Y-0.3398
X7.3573Y-0.25
X7.1033Y-9.002
X7.1405Y-8.9122
X7.1405Y-9.0917
X7.2303Y-8.875
X7.2303Y-9.1289
X7.3201Y-8.9122
X7.3201Y-9.0917
X7.3573Y-9.002
X4.173Y-3.6
X4.2102Y-3.5102
X4.2102Y-3.6898
X4.3Y-3.473
X4.3Y-3.727
X4.3898Y-3.5102
X4.3898Y-3.6898
X4.427Y-3.6
X0.123Y-6.3642
X0.1602Y-6.2744
X0.1602Y-6.454
X0.25Y-6.2372
X0.25Y-6.4911
X0.3398Y-6.2744
X0.3398Y-6.454
X0.377Y-6.3642
T3
X4.9Y-7.0525
X4.95Y-7.0525
X5.0Y-7.0525
T4
X5.96Y-8.5238
X5.96Y-8.716
T5
X0.475Y-2.21
X0.475Y-2.31
X2.8445Y-7.1468
X2.8445Y-7.2255
X2.8445Y-7.3042
X2.8445Y-7.383
X2.8445Y-7.4617
X2.8445Y-7.5405
X2.8445Y-7.6192
X2.8445Y-7.6979
X2.8445Y-7.7767
X2.8445Y-7.8554
X3.7106Y-7.1468
X3.7106Y-7.2255
X3.7106Y-7.3042
X3.7106Y-7.383
X3.7106Y-7.4617
X3.7106Y-7.5405
X3.7106Y-7.6192
X3.7106Y-7.6979
X3.7106Y-7.7767
X3.7106Y-7.8554
X2.8475Y-8.2575
X2.8475Y-8.3575
X2.8475Y-8.4575
X2.8475Y-8.5575
X2.8475Y-8.6575
X2.8475Y-8.7575
X3.6975Y-8.3575
X3.6975Y-8.4575
X3.6975Y-8.5575
X3.6975Y-8.6575
X3.6975Y-8.7575
X3.6975Y-8.8575
T6
X4.57Y-8.0735
X4.57Y-8.1735
X4.67Y-8.0735
X4.67Y-8.1735
X4.77Y-8.0735
X4.77Y-8.1735
X4.87Y-8.0735
X4.87Y-8.1735
X4.97Y-8.0735
X4.97Y-8.1735
X5.07Y-8.0735
X5.07Y-8.1735
X5.17Y-8.0735
X5.17Y-8.1735
X5.27Y-8.0735
X5.27Y-8.1735
X5.37Y-8.0735
X5.37Y-8.1735
X5.47Y-8.0735
X5.47Y-8.1735
X5.57Y-8.0735
X5.57Y-8.1735
X5.67Y-8.0735
X5.67Y-8.1735
X5.77Y-8.0735
X5.77Y-8.1735
X5.87Y-8.0735
X5.87Y-8.1735
X5.97Y-8.0735
X5.97Y-8.1735
X6.07Y-8.0735
X6.07Y-8.1735
X6.17Y-8.0735
X6.17Y-8.1735
X6.27Y-8.0735
X6.27Y-8.1735
X6.37Y-8.0735
X6.37Y-8.1735
X6.47Y-8.0735
X6.47Y-8.1735
X0.605Y-6.7285
X0.605Y-6.8285
X0.605Y-6.9285
X0.605Y-7.0285
X0.605Y-7.1285
X0.605Y-7.2285
X0.605Y-7.3285
X0.605Y-7.4285
X0.605Y-7.5883
X0.605Y-7.6883
X0.605Y-7.7883
X0.605Y-7.8883
X0.605Y-7.9883
X0.605Y-8.0883
X0.605Y-8.1883
X0.605Y-8.2883
X0.605Y-8.3883
X0.605Y-8.4883
X2.505Y-6.7285
X2.505Y-6.8285
X2.505Y-6.9285
X2.505Y-7.0285
X2.505Y-7.1285
X2.505Y-7.2285
X2.505Y-7.4285
X2.505Y-7.5285
X2.505Y-7.6285
X2.505Y-7.7285
X2.505Y-7.8285
X2.505Y-7.9285
X2.505Y-8.0285
X2.505Y-8.1285
X1.16Y-6.2485
X1.26Y-6.2485
X1.36Y-6.2485
T7
X1.435Y-4.8735
X1.435Y-4.9735
X1.435Y-5.0735
X2.18Y-4.8835
X2.18Y-4.9835
X2.18Y-5.0835
X1.085Y-4.8735
X1.085Y-4.9735
X1.085Y-5.0735
T8
X1.045Y-5.7285
X2.505Y-5.8335
X2.8387Y-6.7788
X3.0975Y-7.5225
X3.2475Y-6.87
X3.3525Y-7.59
X3.3525Y-8.4725
X5.435Y-6.2035
X6.61Y-6.8683
T9
X5.79Y-4.2742
X5.79Y-5.16
X4.89Y-4.2742
X4.89Y-5.16
X4.44Y-4.2742
X4.44Y-5.16
X5.34Y-4.2742
X5.34Y-5.16
X3.54Y-4.2742
X3.54Y-5.16
X3.99Y-4.2742
X3.99Y-5.16
X3.4192Y-5.5385
X4.305Y-5.5385
X6.24Y-4.2742
X6.24Y-5.16
X6.69Y-4.2742
X6.69Y-5.16
T10
X3.955Y-8.65
T11
X3.855Y-8.55
X3.855Y-8.75
X4.055Y-8.55
X4.055Y-8.75
T12
X6.9525Y-6.7771
X6.9525Y-7.1023
X6.9525Y-7.4275
X6.9525Y-7.7527
X6.9525Y-8.0779
X0.255Y-4.5031
X0.255Y-4.8283
X0.255Y-5.1535
X0.255Y-5.4787
X0.255Y-5.8039
T13
X3.45Y-0.8625
X3.45Y-1.6499
X3.45Y-3.144
X3.45Y-3.9314
X2.6Y-0.1625
X2.6Y-0.9499
X2.6Y-2.444
X2.6Y-3.2314
X6.85Y-0.8625
X6.85Y-1.6499
X6.85Y-3.144
X6.85Y-3.9314
X4.3Y-0.1625
X4.3Y-0.9499
X4.3Y-2.444
X4.3Y-3.2314
X5.15Y-0.8625
X5.15Y-1.6499
X5.15Y-3.144
X5.15Y-3.9314
X6.0Y-0.1625
X6.0Y-0.9499
X6.0Y-2.444
X6.0Y-3.2314
X0.9Y-0.1625
X0.9Y-0.9499
X0.9Y-2.444
X0.9Y-3.2314
X1.75Y-0.8625
X1.75Y-1.6499
X1.75Y-3.144
X1.75Y-3.9314
T14
X3.765Y-4.8485
T15
X0.605Y-8.6285
X1.205Y-6.6285
X2.305Y-6.6285
X2.505Y-8.6785
T16
X1.26Y-4.4735
X1.26Y-5.4735
X2.35Y-4.4785
X2.35Y-5.4785
T17
X0.25Y-0.25
X7.2303Y-6.3642
X7.2303Y-0.25
X7.2303Y-9.002
X4.3Y-3.6
X0.25Y-6.3642
X0.25Y-9.002
T18
X6.24Y-4.7171
X6.69Y-4.7171
X5.79Y-4.7171
X4.89Y-4.7171
X4.44Y-4.7171
X5.34Y-4.7171
X3.54Y-4.7171
X3.99Y-4.7171
X3.8621Y-5.5385
T19
X4.3783Y-8.1235
X4.3783Y-9.029
X6.6617Y-8.1235
X6.6617Y-9.029
T0
M30
