G04 #@! TF.GenerationSoftware,KiCad,Pcbnew,(5.1.5-0-10_14)*
G04 #@! TF.CreationDate,2021-05-01T16:36:58+02:00*
G04 #@! TF.ProjectId,GNSSreferencestationV4,474e5353-7265-4666-9572-656e63657374,rev?*
G04 #@! TF.SameCoordinates,Original*
G04 #@! TF.FileFunction,Soldermask,Bot*
G04 #@! TF.FilePolarity,Negative*
%FSLAX46Y46*%
G04 Gerber Fmt 4.6, Leading zero omitted, Abs format (unit mm)*
G04 Created by KiCad (PCBNEW (5.1.5-0-10_14)) date 2021-05-01 16:36:58*
%MOMM*%
%LPD*%
G04 APERTURE LIST*
%ADD10C,1.700000*%
%ADD11R,1.700000X1.700000*%
%ADD12C,2.250000*%
%ADD13C,2.050000*%
%ADD14R,3.300000X5.300000*%
%ADD15R,5.300000X4.750000*%
%ADD16C,3.200000*%
%ADD17O,1.700000X1.700000*%
%ADD18R,1.120000X1.500000*%
%ADD19C,0.100000*%
%ADD20C,4.000000*%
%ADD21R,4.000000X4.000000*%
%ADD22C,6.000000*%
%ADD23C,1.500000*%
%ADD24C,0.900000*%
%ADD25C,8.600000*%
%ADD26O,2.000000X1.905000*%
%ADD27R,2.000000X1.905000*%
%ADD28C,1.600000*%
%ADD29C,2.700000*%
%ADD30C,3.000000*%
G04 APERTURE END LIST*
D10*
X72250500Y-185527500D03*
X72250500Y-187527500D03*
X72250500Y-189527500D03*
X72250500Y-191527500D03*
X72250500Y-193527500D03*
X72250500Y-195527500D03*
X72250500Y-197527500D03*
X72250500Y-199527500D03*
X72250500Y-181527500D03*
X72250500Y-183527500D03*
X94250500Y-199527500D03*
X94250500Y-197527500D03*
X94250500Y-195527500D03*
X94250500Y-193527500D03*
X94250500Y-191527500D03*
X94250500Y-189527500D03*
X94250500Y-187527500D03*
X94250500Y-185527500D03*
X94250500Y-183527500D03*
X94250500Y-181527500D03*
D11*
X72326000Y-222440500D03*
D10*
X72326000Y-219900500D03*
X72326000Y-217360500D03*
X72326000Y-214820500D03*
X72326000Y-212280500D03*
X72326000Y-209740500D03*
D11*
X93917000Y-224980500D03*
D10*
X93917000Y-222440500D03*
X93917000Y-219900500D03*
X93917000Y-217360500D03*
X93917000Y-214820500D03*
X93917000Y-212280500D03*
D12*
X97917000Y-222250000D03*
X97917000Y-217170000D03*
X102997000Y-217170000D03*
X102997000Y-222250000D03*
D13*
X100457000Y-219710000D03*
D14*
X152400000Y-82077500D03*
D15*
X152400000Y-62077500D03*
X152400000Y-24127500D03*
D14*
X152400000Y-4127500D03*
X109220000Y-82077500D03*
D15*
X109220000Y-62077500D03*
X109220000Y-24127500D03*
D14*
X109220000Y-4127500D03*
X66040000Y-82077500D03*
D15*
X66040000Y-62077500D03*
X66040000Y-24127500D03*
D14*
X66040000Y-4127500D03*
X22860000Y-82077500D03*
D15*
X22860000Y-62077500D03*
X22860000Y-24127500D03*
D14*
X22860000Y-4127500D03*
X130810000Y-99857500D03*
D15*
X130810000Y-79857500D03*
X130810000Y-41907500D03*
D14*
X130810000Y-21907500D03*
X173990000Y-99857500D03*
D15*
X173990000Y-79857500D03*
X173990000Y-41907500D03*
D14*
X173990000Y-21907500D03*
X87630000Y-99857500D03*
D15*
X87630000Y-79857500D03*
X87630000Y-41907500D03*
D14*
X87630000Y-21907500D03*
X44450000Y-99857500D03*
D15*
X44450000Y-79857500D03*
X44450000Y-41907500D03*
D14*
X44450000Y-21907500D03*
D16*
X58547000Y-168363000D03*
X30607000Y-168363000D03*
X15367000Y-219163000D03*
X63627000Y-220433000D03*
D17*
X15367000Y-173443000D03*
X15367000Y-170903000D03*
X15367000Y-210523000D03*
X63627000Y-170903000D03*
X15367000Y-207983000D03*
X63627000Y-173443000D03*
X15367000Y-205443000D03*
X63627000Y-175983000D03*
X15367000Y-202903000D03*
X63627000Y-178523000D03*
X15367000Y-200363000D03*
X63627000Y-181063000D03*
X15367000Y-197823000D03*
X63627000Y-183603000D03*
X15367000Y-195283000D03*
X63627000Y-188683000D03*
X15367000Y-192743000D03*
X63627000Y-191223000D03*
X15367000Y-188683000D03*
X63627000Y-193763000D03*
X15367000Y-186143000D03*
X63627000Y-196303000D03*
X15367000Y-183603000D03*
X63627000Y-198843000D03*
X15367000Y-181063000D03*
X63627000Y-201383000D03*
X15367000Y-178523000D03*
X63627000Y-203923000D03*
X15367000Y-175983000D03*
D11*
X63627000Y-206463000D03*
D17*
X15367000Y-213063000D03*
X15367000Y-215603000D03*
D18*
X124460000Y-179133500D03*
D19*
G36*
X127307445Y-178384848D02*
G01*
X127334625Y-178388880D01*
X127361280Y-178395557D01*
X127387151Y-178404814D01*
X127411991Y-178416562D01*
X127435560Y-178430689D01*
X127457630Y-178447057D01*
X127477990Y-178465510D01*
X127496443Y-178485870D01*
X127512811Y-178507940D01*
X127526938Y-178531509D01*
X127538686Y-178556349D01*
X127547943Y-178582220D01*
X127554620Y-178608875D01*
X127558652Y-178636055D01*
X127560000Y-178663500D01*
X127560000Y-179603500D01*
X127558652Y-179630945D01*
X127554620Y-179658125D01*
X127547943Y-179684780D01*
X127538686Y-179710651D01*
X127526938Y-179735491D01*
X127512811Y-179759060D01*
X127496443Y-179781130D01*
X127477990Y-179801490D01*
X127457630Y-179819943D01*
X127435560Y-179836311D01*
X127411991Y-179850438D01*
X127387151Y-179862186D01*
X127361280Y-179871443D01*
X127334625Y-179878120D01*
X127307445Y-179882152D01*
X127280000Y-179883500D01*
X126720000Y-179883500D01*
X126692555Y-179882152D01*
X126665375Y-179878120D01*
X126638720Y-179871443D01*
X126612849Y-179862186D01*
X126588009Y-179850438D01*
X126564440Y-179836311D01*
X126542370Y-179819943D01*
X126522010Y-179801490D01*
X126503557Y-179781130D01*
X126487189Y-179759060D01*
X126473062Y-179735491D01*
X126461314Y-179710651D01*
X126452057Y-179684780D01*
X126445380Y-179658125D01*
X126441348Y-179630945D01*
X126440000Y-179603500D01*
X126440000Y-178663500D01*
X126441348Y-178636055D01*
X126445380Y-178608875D01*
X126452057Y-178582220D01*
X126461314Y-178556349D01*
X126473062Y-178531509D01*
X126487189Y-178507940D01*
X126503557Y-178485870D01*
X126522010Y-178465510D01*
X126542370Y-178447057D01*
X126564440Y-178430689D01*
X126588009Y-178416562D01*
X126612849Y-178404814D01*
X126638720Y-178395557D01*
X126665375Y-178388880D01*
X126692555Y-178384848D01*
X126720000Y-178383500D01*
X127280000Y-178383500D01*
X127307445Y-178384848D01*
G37*
G36*
X126037445Y-178384848D02*
G01*
X126064625Y-178388880D01*
X126091280Y-178395557D01*
X126117151Y-178404814D01*
X126141991Y-178416562D01*
X126165560Y-178430689D01*
X126187630Y-178447057D01*
X126207990Y-178465510D01*
X126226443Y-178485870D01*
X126242811Y-178507940D01*
X126256938Y-178531509D01*
X126268686Y-178556349D01*
X126277943Y-178582220D01*
X126284620Y-178608875D01*
X126288652Y-178636055D01*
X126290000Y-178663500D01*
X126290000Y-179603500D01*
X126288652Y-179630945D01*
X126284620Y-179658125D01*
X126277943Y-179684780D01*
X126268686Y-179710651D01*
X126256938Y-179735491D01*
X126242811Y-179759060D01*
X126226443Y-179781130D01*
X126207990Y-179801490D01*
X126187630Y-179819943D01*
X126165560Y-179836311D01*
X126141991Y-179850438D01*
X126117151Y-179862186D01*
X126091280Y-179871443D01*
X126064625Y-179878120D01*
X126037445Y-179882152D01*
X126010000Y-179883500D01*
X125450000Y-179883500D01*
X125422555Y-179882152D01*
X125395375Y-179878120D01*
X125368720Y-179871443D01*
X125342849Y-179862186D01*
X125318009Y-179850438D01*
X125294440Y-179836311D01*
X125272370Y-179819943D01*
X125252010Y-179801490D01*
X125233557Y-179781130D01*
X125217189Y-179759060D01*
X125203062Y-179735491D01*
X125191314Y-179710651D01*
X125182057Y-179684780D01*
X125175380Y-179658125D01*
X125171348Y-179630945D01*
X125170000Y-179603500D01*
X125170000Y-178663500D01*
X125171348Y-178636055D01*
X125175380Y-178608875D01*
X125182057Y-178582220D01*
X125191314Y-178556349D01*
X125203062Y-178531509D01*
X125217189Y-178507940D01*
X125233557Y-178485870D01*
X125252010Y-178465510D01*
X125272370Y-178447057D01*
X125294440Y-178430689D01*
X125318009Y-178416562D01*
X125342849Y-178404814D01*
X125368720Y-178395557D01*
X125395375Y-178388880D01*
X125422555Y-178384848D01*
X125450000Y-178383500D01*
X126010000Y-178383500D01*
X126037445Y-178384848D01*
G37*
D20*
X176593500Y-172138500D03*
X176593500Y-180398500D03*
X176593500Y-188658500D03*
X176593500Y-196918500D03*
D21*
X176593500Y-205178500D03*
D20*
X6477000Y-114378000D03*
X6477000Y-122638000D03*
X6477000Y-130898000D03*
X6477000Y-139158000D03*
D21*
X6477000Y-147418000D03*
D22*
X111208000Y-206336000D03*
X169208000Y-229336000D03*
X111208000Y-229336000D03*
X169208000Y-206336000D03*
D17*
X116078000Y-205066000D03*
X116078000Y-207606000D03*
X133858000Y-205066000D03*
X133858000Y-207606000D03*
X138938000Y-205066000D03*
X138938000Y-207606000D03*
X128778000Y-205066000D03*
X128778000Y-207606000D03*
X156718000Y-205066000D03*
X156718000Y-207606000D03*
X126238000Y-205066000D03*
X126238000Y-207606000D03*
X144018000Y-205066000D03*
X144018000Y-207606000D03*
X121158000Y-205066000D03*
X121158000Y-207606000D03*
X123698000Y-205066000D03*
X123698000Y-207606000D03*
X118618000Y-205066000D03*
X118618000Y-207606000D03*
X141478000Y-205066000D03*
X141478000Y-207606000D03*
X154178000Y-205066000D03*
X154178000Y-207606000D03*
X149098000Y-205066000D03*
X149098000Y-207606000D03*
X131318000Y-205066000D03*
X131318000Y-207606000D03*
X151638000Y-205066000D03*
X151638000Y-207606000D03*
X136398000Y-205066000D03*
X136398000Y-207606000D03*
D11*
X164338000Y-207606000D03*
D17*
X164338000Y-205066000D03*
X159258000Y-207606000D03*
X161798000Y-205066000D03*
X146558000Y-205066000D03*
X146558000Y-207606000D03*
X161798000Y-207606000D03*
X159258000Y-205066000D03*
D23*
X151384000Y-216505500D03*
X151384000Y-221385500D03*
D24*
X8630419Y-226369581D03*
X6350000Y-225425000D03*
X4069581Y-226369581D03*
X3125000Y-228650000D03*
X4069581Y-230930419D03*
X6350000Y-231875000D03*
X8630419Y-230930419D03*
X9575000Y-228650000D03*
D25*
X6350000Y-228650000D03*
D24*
X185930419Y-226369581D03*
X183650000Y-225425000D03*
X181369581Y-226369581D03*
X180425000Y-228650000D03*
X181369581Y-230930419D03*
X183650000Y-231875000D03*
X185930419Y-230930419D03*
X186875000Y-228650000D03*
D25*
X183650000Y-228650000D03*
D26*
X27559000Y-128866000D03*
X27559000Y-126326000D03*
D27*
X27559000Y-123786000D03*
D28*
X12065000Y-58674000D03*
X12065000Y-56134000D03*
D26*
X55372000Y-129120000D03*
X55372000Y-126580000D03*
D27*
X55372000Y-124040000D03*
D26*
X36449000Y-123786000D03*
X36449000Y-126326000D03*
D27*
X36449000Y-128866000D03*
D17*
X34544000Y-158711000D03*
X32004000Y-158711000D03*
D11*
X29464000Y-158711000D03*
D22*
X59690000Y-139153000D03*
X59690000Y-113753000D03*
X32004000Y-113626000D03*
X32004000Y-139026000D03*
D24*
X185930419Y-159369581D03*
X183650000Y-158425000D03*
X181369581Y-159369581D03*
X180425000Y-161650000D03*
X181369581Y-163930419D03*
X183650000Y-164875000D03*
X185930419Y-163930419D03*
X186875000Y-161650000D03*
D25*
X183650000Y-161650000D03*
D29*
X98097000Y-140677000D03*
D30*
X86847000Y-140677000D03*
X109347000Y-140677000D03*
D24*
X111500419Y-89159581D03*
X109220000Y-88215000D03*
X106939581Y-89159581D03*
X105995000Y-91440000D03*
X106939581Y-93720419D03*
X109220000Y-94665000D03*
X111500419Y-93720419D03*
X112445000Y-91440000D03*
D25*
X109220000Y-91440000D03*
D29*
X135636000Y-119814000D03*
D30*
X135636000Y-108564000D03*
X135636000Y-131064000D03*
D24*
X8630419Y-159369581D03*
X6350000Y-158425000D03*
X4069581Y-159369581D03*
X3125000Y-161650000D03*
X4069581Y-163930419D03*
X6350000Y-164875000D03*
X8630419Y-163930419D03*
X9575000Y-161650000D03*
D25*
X6350000Y-161650000D03*
D24*
X8630419Y-4069581D03*
X6350000Y-3125000D03*
X4069581Y-4069581D03*
X3125000Y-6350000D03*
X4069581Y-8630419D03*
X6350000Y-9575000D03*
X8630419Y-8630419D03*
X9575000Y-6350000D03*
D25*
X6350000Y-6350000D03*
D24*
X185930419Y-4069581D03*
X183650000Y-3125000D03*
X181369581Y-4069581D03*
X180425000Y-6350000D03*
X181369581Y-8630419D03*
X183650000Y-9575000D03*
X185930419Y-8630419D03*
X186875000Y-6350000D03*
D25*
X183650000Y-6350000D03*
D29*
X169926000Y-119814000D03*
D30*
X169926000Y-108564000D03*
X169926000Y-131064000D03*
D29*
X158496000Y-119814000D03*
D30*
X158496000Y-108564000D03*
X158496000Y-131064000D03*
D29*
X147066000Y-119814000D03*
D30*
X147066000Y-108564000D03*
X147066000Y-131064000D03*
D29*
X124206000Y-119814000D03*
D30*
X124206000Y-108564000D03*
X124206000Y-131064000D03*
D29*
X112776000Y-119814000D03*
D30*
X112776000Y-108564000D03*
X112776000Y-131064000D03*
D29*
X101346000Y-119814000D03*
D30*
X101346000Y-108564000D03*
X101346000Y-131064000D03*
D29*
X89916000Y-119814000D03*
D30*
X89916000Y-108564000D03*
X89916000Y-131064000D03*
M02*
