G04 #@! TF.GenerationSoftware,KiCad,Pcbnew,(5.1.5-0-10_14)*
G04 #@! TF.CreationDate,2021-05-01T16:36:58+02:00*
G04 #@! TF.ProjectId,GNSSreferencestationV4,474e5353-7265-4666-9572-656e63657374,rev?*
G04 #@! TF.SameCoordinates,Original*
G04 #@! TF.FileFunction,Legend,Bot*
G04 #@! TF.FilePolarity,Positive*
%FSLAX46Y46*%
G04 Gerber Fmt 4.6, Leading zero omitted, Abs format (unit mm)*
G04 Created by KiCad (PCBNEW (5.1.5-0-10_14)) date 2021-05-01 16:36:58*
%MOMM*%
%LPD*%
G04 APERTURE LIST*
%ADD10C,0.150000*%
G04 APERTURE END LIST*
D10*
X67032238Y-210288238D02*
X66984619Y-210193000D01*
X66984619Y-210002523D01*
X67032238Y-209907285D01*
X67127476Y-209859666D01*
X67175095Y-209859666D01*
X67270333Y-209907285D01*
X67317952Y-210002523D01*
X67317952Y-210145380D01*
X67365571Y-210240619D01*
X67460809Y-210288238D01*
X67508428Y-210288238D01*
X67603666Y-210240619D01*
X67651285Y-210145380D01*
X67651285Y-210002523D01*
X67603666Y-209907285D01*
X66984619Y-209431095D02*
X67651285Y-209431095D01*
X67984619Y-209431095D02*
X67937000Y-209478714D01*
X67889380Y-209431095D01*
X67937000Y-209383476D01*
X67984619Y-209431095D01*
X67889380Y-209431095D01*
X66984619Y-208954904D02*
X67651285Y-208954904D01*
X67556047Y-208954904D02*
X67603666Y-208907285D01*
X67651285Y-208812047D01*
X67651285Y-208669190D01*
X67603666Y-208573952D01*
X67508428Y-208526333D01*
X66984619Y-208526333D01*
X67508428Y-208526333D02*
X67603666Y-208478714D01*
X67651285Y-208383476D01*
X67651285Y-208240619D01*
X67603666Y-208145380D01*
X67508428Y-208097761D01*
X66984619Y-208097761D01*
X67651285Y-207621571D02*
X66651285Y-207621571D01*
X67603666Y-207621571D02*
X67651285Y-207526333D01*
X67651285Y-207335857D01*
X67603666Y-207240619D01*
X67556047Y-207193000D01*
X67460809Y-207145380D01*
X67175095Y-207145380D01*
X67079857Y-207193000D01*
X67032238Y-207240619D01*
X66984619Y-207335857D01*
X66984619Y-207526333D01*
X67032238Y-207621571D01*
X66984619Y-206573952D02*
X67032238Y-206669190D01*
X67127476Y-206716809D01*
X67984619Y-206716809D01*
X67032238Y-205812047D02*
X66984619Y-205907285D01*
X66984619Y-206097761D01*
X67032238Y-206193000D01*
X67127476Y-206240619D01*
X67508428Y-206240619D01*
X67603666Y-206193000D01*
X67651285Y-206097761D01*
X67651285Y-205907285D01*
X67603666Y-205812047D01*
X67508428Y-205764428D01*
X67413190Y-205764428D01*
X67317952Y-206240619D01*
X66984619Y-204764428D02*
X67460809Y-205097761D01*
X66984619Y-205335857D02*
X67984619Y-205335857D01*
X67984619Y-204954904D01*
X67937000Y-204859666D01*
X67889380Y-204812047D01*
X67794142Y-204764428D01*
X67651285Y-204764428D01*
X67556047Y-204812047D01*
X67508428Y-204859666D01*
X67460809Y-204954904D01*
X67460809Y-205335857D01*
X67984619Y-204478714D02*
X67984619Y-203907285D01*
X66984619Y-204193000D02*
X67984619Y-204193000D01*
X66984619Y-203573952D02*
X67984619Y-203573952D01*
X66984619Y-203002523D02*
X67556047Y-203431095D01*
X67984619Y-203002523D02*
X67413190Y-203573952D01*
X67889380Y-202621571D02*
X67937000Y-202573952D01*
X67984619Y-202478714D01*
X67984619Y-202240619D01*
X67937000Y-202145380D01*
X67889380Y-202097761D01*
X67794142Y-202050142D01*
X67698904Y-202050142D01*
X67556047Y-202097761D01*
X66984619Y-202669190D01*
X66984619Y-202050142D01*
X67508428Y-201288238D02*
X67460809Y-201145380D01*
X67413190Y-201097761D01*
X67317952Y-201050142D01*
X67175095Y-201050142D01*
X67079857Y-201097761D01*
X67032238Y-201145380D01*
X66984619Y-201240619D01*
X66984619Y-201621571D01*
X67984619Y-201621571D01*
X67984619Y-201288238D01*
X67937000Y-201193000D01*
X67889380Y-201145380D01*
X67794142Y-201097761D01*
X67698904Y-201097761D01*
X67603666Y-201145380D01*
X67556047Y-201193000D01*
X67508428Y-201288238D01*
X67508428Y-201621571D01*
X66984619Y-200097761D02*
X66984619Y-200669190D01*
X66984619Y-200383476D02*
X67984619Y-200383476D01*
X67841761Y-200478714D01*
X67746523Y-200573952D01*
X67698904Y-200669190D01*
M02*
